# xmcd CD database file
#
# Track frame offsets:
#	182
#	20537
#	45177
#	70295
#	88455
#	112142
#	129995
#	140930
#	174540
#	194210
#	205150
#	227937
#
# Disc length: 3894 seconds
#
# Revision: 0
# Processed by: cddbd v1.5.2PL0 Copyright (c) Steve Scherf et al.
# Submitted via: CDex 1.70beta2
#
DISCID=bb0f340c
DTITLE=Various Artist - Nouvel Age
DYEAR=1900
DGENRE=New Age
TTITLE0=Joe Weineck - The Big Green
TTITLE1=Alain Morisod - Gaspesia
TTITLE2=Simon Cooper - Stardance
TTITLE3=Jolly Kunjappu - Gypsy Legend
TTITLE4=Alain Morisod - Nuit De Satin
TTITLE5=Medwyn Goodall - Sangay
TTITLE6=Images - Promise Me
TTITLE7=Medwyn Goodall - Dancelion Clock
TTITLE8=John Sposito - Falling Star
TTITLE9=Paul Vens - Water And Air
TTITLE10=Alain Morisod - Little Denia
TTITLE11=Gomer Edwin Evans - A Journey Through Lost Time
EXTD=
EXTT0=
EXTT1=
EXTT2=
EXTT3=
EXTT4=
EXTT5=
EXTT6=
EXTT7=
EXTT8=
EXTT9=
EXTT10=
EXTT11=
PLAYORDER=
